<svg id="svg" version="1.1" xmlns="http://www.w3.org/2000/svg" xmlns:xlink="http://www.w3.org/1999/xlink" width="400" height="348.2269503546099" viewBox="0, 0, 400,348.2269503546099"><g id="svgg"><path id="path0" d="M151.916 112.578 C 148.405 113.036,145.150 115.098,143.943 117.630 C 143.678 118.186,143.286 119.018,143.072 119.478 C 142.359 121.012,142.540 171.651,143.264 173.171 C 145.012 176.842,147.927 178.942,152.410 179.762 C 155.198 180.272,219.589 180.286,222.497 179.778 C 224.478 179.431,224.937 179.285,227.091 178.313 C 228.297 177.769,231.010 175.105,231.010 174.465 C 231.010 174.200,231.118 173.876,231.249 173.745 C 232.314 172.680,232.394 170.740,232.399 145.752 C 232.402 129.353,232.283 120.524,232.056 120.383 C 231.864 120.265,231.707 119.868,231.707 119.502 C 231.707 118.780,230.575 116.577,229.696 115.586 C 228.563 114.310,225.386 112.922,222.760 112.557 C 219.603 112.118,155.301 112.137,151.916 112.578 M114.286 137.996 C 114.286 165.855,114.373 164.651,112.234 166.175 C 111.221 166.895,111.060 166.899,79.430 166.899 L 47.644 166.899 47.882 168.206 C 48.014 168.924,48.203 170.139,48.304 170.906 C 48.903 175.472,52.464 178.727,57.985 179.755 C 60.853 180.290,115.111 180.289,117.973 179.754 C 122.452 178.918,125.262 176.899,126.777 173.428 C 128.196 170.178,128.223 169.566,128.223 140.587 L 128.223 112.544 121.254 112.544 L 114.286 112.544 114.286 137.996 M256.439 112.859 C 253.972 113.206,249.826 116.065,249.826 117.419 C 249.826 117.612,249.669 117.770,249.477 117.770 C 249.286 117.770,249.129 118.074,249.129 118.446 C 249.129 118.818,248.995 119.206,248.830 119.307 C 248.666 119.409,248.428 120.320,248.301 121.331 C 248.174 122.343,247.977 123.680,247.863 124.303 L 247.656 125.436 288.985 125.436 L 330.314 125.436 330.314 118.990 L 330.314 112.544 294.164 112.590 C 274.281 112.616,257.305 112.737,256.439 112.859 M216.289 125.697 C 216.369 125.936,216.706 126.132,217.038 126.132 C 218.818 126.132,218.981 127.568,219.101 144.251 C 219.238 163.393,219.201 163.849,217.371 165.592 L 215.999 166.899 187.453 166.899 L 158.908 166.899 157.711 165.701 C 155.858 163.848,155.749 162.750,155.749 145.865 C 155.749 127.463,156.068 125.806,159.698 125.331 C 162.748 124.932,216.150 125.277,216.289 125.697 M247.735 159.582 L 247.735 179.443 289.024 179.443 L 330.314 179.443 330.314 173.171 L 330.314 166.899 295.986 166.899 L 261.658 166.899 261.753 159.669 L 261.847 152.439 296.080 152.350 L 330.314 152.261 330.314 145.991 L 330.314 139.721 289.024 139.721 L 247.735 139.721 247.735 159.582 M99.652 199.467 L 99.652 201.372 103.920 201.470 L 108.188 201.568 108.280 213.850 L 108.371 226.132 110.627 226.132 L 112.883 226.132 112.975 213.850 L 113.066 201.568 117.509 201.470 L 121.951 201.373 121.951 199.467 L 121.951 197.561 110.801 197.561 L 99.652 197.561 99.652 199.467 M136.237 211.847 L 136.237 226.132 144.948 226.132 L 153.659 226.132 153.659 224.224 L 153.659 222.315 147.125 222.220 L 140.592 222.125 140.490 218.641 C 140.331 213.173,139.891 213.589,145.825 213.589 L 150.871 213.589 150.871 211.847 L 150.871 210.105 146.005 210.105 C 140.132 210.105,140.350 210.301,140.493 205.140 L 140.592 201.568 147.125 201.473 L 153.659 201.378 153.659 199.470 L 153.659 197.561 144.948 197.561 L 136.237 197.561 136.237 211.847 M177.003 197.975 C 171.917 200.120,170.015 202.040,167.988 207.072 C 167.500 208.286,167.463 216.253,167.944 216.551 C 168.136 216.669,168.293 217.055,168.293 217.409 C 168.293 218.847,171.957 224.042,172.970 224.042 C 173.094 224.042,173.614 224.316,174.126 224.651 C 178.454 227.488,190.941 225.766,190.941 222.333 C 190.941 220.690,188.440 219.739,187.188 220.906 C 186.777 221.289,186.208 221.603,185.924 221.603 C 185.639 221.603,185.310 221.760,185.192 221.951 C 184.748 222.668,178.930 222.363,177.392 221.542 C 175.137 220.338,172.822 217.374,172.822 215.689 C 172.822 215.323,172.666 214.927,172.474 214.808 C 172.282 214.690,172.125 213.357,172.125 211.847 C 172.125 210.336,172.282 209.003,172.474 208.885 C 172.666 208.767,172.822 208.370,172.822 208.004 C 172.822 206.580,175.595 202.787,176.636 202.787 C 176.838 202.787,177.003 202.631,177.003 202.439 C 177.003 202.247,177.308 202.091,177.680 202.091 C 178.052 202.091,178.453 201.934,178.571 201.742 C 179.308 200.550,187.472 201.820,188.095 203.223 C 188.375 203.853,189.560 203.396,190.125 202.439 C 190.465 201.864,190.866 201.394,191.016 201.394 C 192.327 201.394,191.018 200.214,187.857 198.545 C 185.831 197.476,179.034 197.119,177.003 197.975 M205.923 211.847 L 205.923 226.132 208.362 226.132 L 210.801 226.132 210.801 219.867 C 210.801 212.397,209.868 213.177,218.641 213.315 L 224.913 213.415 225.008 219.774 L 225.103 226.132 227.534 226.132 L 229.965 226.132 229.965 211.847 L 229.965 197.561 227.534 197.561 L 225.103 197.561 225.008 203.746 L 224.913 209.930 218.144 210.025 C 210.043 210.139,210.814 210.835,210.807 203.397 L 210.801 197.561 208.362 197.561 L 205.923 197.561 205.923 211.847 M264.808 211.847 L 264.808 226.132 267.247 226.132 L 269.686 226.132 269.686 211.847 L 269.686 197.561 267.247 197.561 L 264.808 197.561 264.808 211.847 M284.669 199.477 L 284.669 201.394 288.850 201.394 L 293.031 201.394 293.031 213.763 L 293.031 226.132 295.470 226.132 L 297.909 226.132 297.909 214.314 C 297.909 199.864,297.348 201.394,302.651 201.394 L 306.969 201.394 306.969 199.477 L 306.969 197.561 295.819 197.561 L 284.669 197.561 284.669 199.477 M317.166 221.377 C 314.765 222.568,315.815 226.132,318.567 226.132 C 320.766 226.132,321.852 224.421,320.849 222.538 C 320.013 220.969,318.777 220.579,317.166 221.377 M336.207 221.353 C 333.905 223.120,334.739 226.132,337.530 226.132 C 339.212 226.132,340.186 225.216,340.186 223.633 C 340.186 221.719,337.634 220.257,336.207 221.353 M354.965 221.643 C 353.791 222.519,353.618 224.627,354.644 225.556 C 355.620 226.439,358.016 226.322,358.691 225.358 C 360.485 222.797,357.460 219.781,354.965 221.643 M351.081 315.543 C 347.570 316.215,345.714 318.676,347.561 320.209 C 348.355 320.868,349.219 320.016,348.958 318.832 C 348.807 318.141,348.971 317.713,349.622 317.101 C 350.846 315.951,351.640 316.327,351.179 317.839 C 350.770 319.181,349.914 322.305,349.759 323.023 C 349.388 324.736,351.488 323.658,351.981 321.882 C 352.757 319.081,353.857 319.062,354.089 321.846 C 354.348 324.962,354.820 325.875,355.914 325.377 C 356.977 324.892,357.008 324.432,356.098 322.648 C 355.042 320.579,355.188 319.612,356.794 318.037 C 358.384 316.479,358.634 315.331,357.384 315.331 C 356.827 315.331,356.240 315.813,355.475 316.899 C 353.869 319.177,352.750 318.939,353.671 316.516 C 354.185 315.167,353.799 315.022,351.081 315.543 M359.814 315.215 C 359.686 315.343,359.582 315.813,359.582 316.260 C 359.582 317.209,360.632 317.384,361.324 316.551 C 362.032 315.697,360.600 314.429,359.814 315.215 M373.036 315.615 C 372.939 315.772,372.445 317.139,371.936 318.653 C 370.399 323.233,367.796 324.359,368.805 320.007 C 368.897 319.609,369.408 319.073,369.939 318.816 C 370.756 318.421,370.806 318.326,370.259 318.201 C 369.749 318.084,369.655 317.840,369.815 317.040 C 370.108 315.573,368.705 315.614,367.860 317.099 C 367.027 318.561,365.294 318.482,365.397 316.986 C 365.496 315.538,363.873 315.608,363.362 317.073 C 363.162 317.648,362.857 318.118,362.684 318.118 C 362.511 318.118,362.369 318.708,362.369 319.429 C 362.369 320.820,361.075 322.648,360.090 322.648 C 359.511 322.648,359.379 321.072,359.930 320.732 C 360.504 320.377,360.360 318.118,359.764 318.118 C 358.650 318.118,357.069 322.242,357.830 323.159 C 358.399 323.845,359.564 323.841,360.550 323.151 C 361.251 322.660,361.398 322.660,362.098 323.151 C 363.105 323.856,364.416 323.841,365.216 323.117 C 365.809 322.580,365.898 322.580,366.491 323.117 C 367.287 323.838,368.763 323.858,369.824 323.163 C 370.549 322.688,370.679 322.688,371.074 323.163 C 371.599 323.796,373.211 323.862,373.798 323.275 C 374.361 322.712,374.328 322.279,373.738 322.505 C 372.885 322.832,372.882 321.796,373.727 319.147 C 374.745 315.956,374.771 315.331,373.888 315.331 C 373.516 315.331,373.133 315.459,373.036 315.615 M366.746 319.300 C 367.014 320.365,366.090 322.178,365.126 322.484 C 363.972 322.850,363.627 322.214,364.147 320.679 C 364.888 318.494,366.350 317.719,366.746 319.300 " stroke="none" fill="#cacad2" fill-rule="evenodd"></path><path id="path1" d="M0.000 174.216 L 0.000 348.432 200.000 348.432 L 400.000 348.432 400.000 174.216 L 400.000 0.000 200.000 0.000 L 0.000 0.000 0.000 174.216 M128.495 141.115 C 128.583 167.266,128.535 170.396,128.022 172.055 C 126.833 175.898,123.869 178.836,120.065 179.942 C 117.280 180.751,58.126 180.759,55.804 179.951 C 50.257 178.019,47.387 174.063,47.387 168.348 L 47.387 166.568 79.007 166.472 C 114.284 166.365,112.354 166.505,113.230 163.990 C 113.463 163.322,113.589 154.081,113.589 137.608 C 113.589 117.652,113.682 112.215,114.024 112.074 C 114.264 111.975,117.596 111.923,121.429 111.958 L 128.397 112.021 128.495 141.115 M226.546 112.775 C 228.440 113.651,231.505 116.542,231.857 117.786 C 231.991 118.256,232.236 118.955,232.403 119.338 C 233.281 121.351,233.449 125.683,233.449 146.167 C 233.449 175.862,233.154 177.001,224.684 179.951 C 222.071 180.861,152.428 180.742,149.914 179.823 C 145.515 178.215,143.405 175.955,142.204 171.562 C 141.349 168.436,141.685 122.199,142.583 119.352 C 143.743 115.677,146.471 113.156,150.348 112.175 C 150.923 112.029,167.936 111.935,188.153 111.966 L 224.913 112.021 226.546 112.775 M330.778 112.284 C 331.311 112.674,331.365 113.412,331.280 119.165 L 331.185 125.610 289.373 125.610 L 247.561 125.610 247.443 124.216 C 246.970 118.593,251.104 113.137,256.522 112.235 C 259.635 111.716,330.065 111.763,330.778 112.284 M158.482 126.570 C 156.784 128.005,156.794 127.884,156.794 146.149 C 156.794 163.719,156.815 164.025,158.074 165.403 C 159.047 166.467,162.011 166.571,188.503 166.474 C 218.416 166.364,216.839 166.507,217.973 163.808 C 218.651 162.196,218.655 130.116,217.978 128.223 C 217.079 125.708,218.487 125.819,187.282 125.802 L 159.408 125.787 158.482 126.570 M331.284 145.296 C 331.339 148.650,331.296 151.747,331.190 152.178 L 330.997 152.962 296.509 152.962 L 262.021 152.962 262.021 159.370 C 262.021 164.893,262.097 165.808,262.572 165.991 C 262.875 166.107,278.476 166.202,297.241 166.202 L 331.359 166.202 331.359 173.172 L 331.359 180.142 289.460 180.054 L 247.561 179.965 247.471 159.930 C 247.421 148.911,247.455 139.699,247.547 139.459 C 247.680 139.111,256.245 139.040,289.450 139.110 L 331.185 139.199 331.284 145.296 M185.497 197.012 C 188.690 197.844,191.638 199.710,191.638 200.900 C 191.638 203.036,189.011 204.410,187.198 203.223 C 178.767 197.698,169.245 207.798,174.009 217.213 C 176.507 222.150,182.548 223.436,187.411 220.067 C 188.980 218.979,189.130 219.016,190.831 220.906 C 193.484 223.853,185.065 228.026,178.812 226.864 C 174.984 226.153,173.510 225.418,171.049 222.997 C 169.330 221.305,168.710 220.337,167.588 217.596 C 162.975 206.322,173.739 193.950,185.497 197.012 M122.228 199.379 L 122.331 201.720 118.047 201.818 L 113.763 201.916 113.671 214.213 L 113.580 226.509 110.710 226.408 L 107.840 226.307 107.666 214.111 L 107.491 201.916 103.223 201.819 L 98.955 201.721 98.955 199.525 C 98.955 196.624,97.950 196.843,110.777 196.947 L 122.125 197.038 122.228 199.379 M153.983 197.358 C 154.220 197.643,154.349 198.640,154.287 199.710 L 154.181 201.568 147.636 201.663 L 141.092 201.758 141.190 205.496 L 141.289 209.233 146.153 209.331 C 151.477 209.437,151.554 209.469,151.563 211.557 C 151.573 213.978,151.662 213.937,146.341 213.937 C 140.708 213.937,141.115 213.583,141.115 218.488 L 141.115 221.936 147.648 222.031 L 154.181 222.125 154.181 224.216 L 154.181 226.307 144.861 226.399 L 135.540 226.492 135.540 211.910 C 135.540 203.890,135.645 197.224,135.772 197.096 C 136.281 196.587,153.550 196.836,153.983 197.358 M211.419 203.231 L 211.514 209.423 218.039 209.328 L 224.564 209.233 224.739 203.136 L 224.913 197.038 227.700 197.038 L 230.488 197.038 230.579 211.760 L 230.670 226.481 227.704 226.481 L 224.739 226.481 224.739 220.209 L 224.739 213.937 218.118 213.937 L 211.498 213.937 211.498 220.209 L 211.498 226.481 208.537 226.481 L 205.575 226.481 205.575 211.905 C 205.575 203.888,205.685 197.218,205.821 197.083 C 205.956 196.948,207.249 196.883,208.695 196.938 L 211.324 197.038 211.419 203.231 M270.300 211.760 L 270.391 226.481 267.425 226.481 L 264.460 226.481 264.460 211.905 C 264.460 203.888,264.570 197.218,264.706 197.083 C 264.841 196.948,266.134 196.883,267.580 196.938 L 270.209 197.038 270.300 211.760 M307.246 199.390 L 307.349 201.742 303.189 201.742 C 298.072 201.742,298.606 200.233,298.606 214.677 L 298.606 226.509 295.732 226.408 L 292.857 226.307 292.766 214.035 L 292.674 201.763 288.236 201.665 L 283.798 201.568 283.692 199.710 C 283.519 196.692,282.863 196.842,295.778 196.947 L 307.143 197.038 307.246 199.390 M320.378 221.109 C 322.464 222.475,322.171 225.368,319.819 226.631 C 316.718 228.297,313.735 223.990,316.250 221.476 C 317.320 220.405,319.067 220.250,320.378 221.109 M339.789 221.494 C 342.277 223.877,339.552 228.169,336.478 226.710 C 334.810 225.919,334.410 225.311,334.433 223.609 C 334.472 220.796,337.721 219.512,339.789 221.494 M358.775 221.315 C 359.685 222.169,359.900 224.839,359.135 225.788 C 356.743 228.758,351.922 225.557,353.715 222.190 C 354.674 220.391,357.307 219.935,358.775 221.315 M354.168 314.845 C 354.588 315.265,354.631 315.521,354.341 315.871 C 354.128 316.128,354.010 316.699,354.079 317.141 C 354.197 317.896,355.370 316.617,355.843 315.219 C 355.897 315.061,356.720 314.891,357.674 314.840 C 358.627 314.789,359.695 314.622,360.046 314.468 C 361.011 314.046,362.179 315.349,361.886 316.519 C 361.650 317.459,359.556 317.877,359.065 317.082 C 358.440 316.071,355.702 319.787,356.076 321.139 C 356.689 323.354,357.131 323.738,357.138 322.059 C 357.140 321.256,357.282 320.513,357.452 320.408 C 357.622 320.303,357.864 319.666,357.990 318.993 C 358.207 317.838,358.296 317.770,359.609 317.770 C 361.063 317.770,361.710 318.431,361.064 319.255 C 360.618 319.823,360.221 321.951,360.561 321.951 C 361.098 321.951,361.983 319.966,361.785 319.206 C 361.646 318.676,361.817 318.210,362.324 317.738 C 362.732 317.357,363.066 316.759,363.066 316.408 C 363.066 315.942,363.415 315.714,364.365 315.560 C 365.976 315.298,366.458 315.711,365.921 316.890 C 365.551 317.702,365.587 317.770,366.384 317.770 C 366.996 317.770,367.247 317.580,367.247 317.116 C 367.247 316.283,367.824 315.823,369.251 315.518 C 370.358 315.281,370.383 315.303,370.383 316.486 C 370.383 318.655,371.842 318.147,372.198 315.854 C 372.345 314.906,375.261 314.595,375.261 315.527 C 375.261 316.169,373.971 320.372,373.476 321.341 C 373.145 321.989,373.657 322.225,374.042 321.603 C 374.413 321.002,375.261 321.223,375.261 321.920 C 375.261 323.523,372.046 325.031,371.088 323.877 C 370.712 323.424,370.543 323.424,369.669 323.877 C 368.428 324.518,367.268 324.516,366.416 323.870 C 365.845 323.438,365.662 323.440,365.031 323.881 C 364.096 324.536,362.574 324.534,362.029 323.877 C 361.653 323.424,361.484 323.424,360.609 323.877 C 360.063 324.159,359.302 324.390,358.918 324.390 C 358.534 324.390,357.641 324.782,356.935 325.261 C 354.683 326.790,353.659 325.868,353.659 322.312 C 353.659 319.671,353.243 319.639,352.383 322.213 C 351.742 324.132,351.659 324.221,350.418 324.324 C 349.032 324.440,348.312 323.674,349.083 322.903 C 349.300 322.686,349.477 322.070,349.477 321.533 C 349.477 320.997,349.634 320.557,349.826 320.557 C 350.017 320.557,350.174 320.096,350.174 319.533 C 350.174 318.969,350.331 318.411,350.523 318.293 C 350.714 318.174,350.871 317.737,350.871 317.321 C 350.871 316.576,350.860 316.577,350.040 317.429 C 349.543 317.945,349.333 318.426,349.517 318.624 C 350.549 319.730,348.711 321.572,347.300 320.847 C 345.742 320.046,347.028 315.679,348.821 315.679 C 349.159 315.679,349.533 315.523,349.652 315.331 C 349.770 315.139,350.554 314.983,351.394 314.983 C 352.233 314.983,353.017 314.826,353.136 314.634 C 353.422 314.171,353.512 314.189,354.168 314.845 M364.808 320.181 C 364.808 320.548,364.713 321.097,364.597 321.400 C 364.253 322.297,365.359 322.052,365.988 321.092 C 366.769 319.900,366.693 319.512,365.679 319.512 C 365.053 319.512,364.808 319.700,364.808 320.181 M369.422 320.204 C 368.891 321.055,368.860 321.951,369.363 321.951 C 369.912 321.951,370.577 321.191,370.810 320.296 C 371.076 319.280,370.042 319.212,369.422 320.204 " stroke="none" fill="#141414" fill-rule="evenodd"></path><path id="path2" d="M114.024 112.074 C 113.680 112.215,113.606 117.617,113.673 137.747 L 113.756 163.240 113.934 137.805 L 114.111 112.369 121.175 112.275 L 128.238 112.181 128.143 141.954 C 128.091 158.330,128.167 171.516,128.312 171.257 C 128.457 170.998,128.535 157.564,128.486 141.404 L 128.397 112.021 121.429 111.958 C 117.596 111.923,114.264 111.975,114.024 112.074 M169.251 112.108 C 179.264 112.159,195.649 112.159,205.662 112.108 C 215.675 112.057,207.483 112.015,187.456 112.015 C 167.430 112.015,159.238 112.057,169.251 112.108 M276.246 112.108 C 286.274 112.159,302.580 112.159,312.483 112.108 C 322.386 112.057,314.181 112.015,294.251 112.015 C 274.321 112.015,266.218 112.057,276.246 112.108 M149.129 112.559 C 148.747 112.818,148.888 112.850,149.652 112.679 C 150.933 112.393,151.211 112.193,150.319 112.200 C 149.952 112.203,149.416 112.365,149.129 112.559 M225.358 112.707 C 226.177 112.963,227.255 113.439,227.752 113.765 C 228.250 114.091,228.540 114.169,228.397 113.937 C 228.048 113.373,225.436 112.207,224.564 112.226 C 224.181 112.235,224.538 112.451,225.358 112.707 M255.050 112.521 C 252.853 113.189,248.780 116.641,248.780 117.835 C 248.780 118.021,249.295 117.498,249.924 116.674 C 251.401 114.737,253.435 113.323,255.595 112.730 C 256.542 112.470,257.003 112.257,256.620 112.256 C 256.237 112.256,255.530 112.375,255.050 112.521 M330.662 118.746 L 330.662 125.436 289.148 125.436 L 247.634 125.436 247.830 122.909 C 247.970 121.105,247.930 120.628,247.690 121.240 C 247.506 121.711,247.402 122.887,247.458 123.853 L 247.561 125.610 289.373 125.610 L 331.185 125.610 331.280 119.189 C 331.340 115.147,331.243 112.637,331.019 112.412 C 330.775 112.169,330.662 114.184,330.662 118.746 M147.029 113.491 C 145.204 114.760,143.917 116.160,143.227 117.629 C 142.109 120.006,142.383 120.224,143.551 117.887 C 144.504 115.978,146.808 113.589,147.694 113.589 C 147.886 113.589,148.139 113.432,148.258 113.240 C 148.590 112.703,147.984 112.827,147.029 113.491 M231.316 117.555 C 231.627 118.204,231.942 118.679,232.016 118.612 C 232.224 118.421,231.307 116.376,231.012 116.376 C 230.868 116.376,231.005 116.907,231.316 117.555 M232.080 119.405 C 232.159 120.309,232.704 121.076,232.728 120.317 C 232.742 119.897,232.596 119.456,232.404 119.338 C 232.213 119.220,232.067 119.249,232.080 119.405 M142.031 120.993 C 141.741 122.078,141.805 170.416,142.098 171.154 C 142.228 171.482,142.334 160.154,142.334 145.980 C 142.334 131.806,142.314 120.209,142.288 120.209 C 142.262 120.209,142.147 120.562,142.031 120.993 M232.833 146.167 C 232.833 160.109,232.959 170.298,233.121 169.512 C 233.497 167.694,233.497 124.641,233.121 122.822 C 232.959 122.037,232.833 132.225,232.833 146.167 M187.456 125.780 C 202.883 125.878,215.819 126.087,216.202 126.244 C 216.585 126.401,216.507 126.289,216.028 125.995 C 215.262 125.525,211.803 125.469,187.282 125.531 L 159.408 125.602 187.456 125.780 M158.158 126.231 C 157.457 126.769,156.674 128.219,156.940 128.485 C 157.052 128.596,157.143 128.489,157.143 128.247 C 157.143 128.004,157.630 127.351,158.225 126.795 C 159.289 125.801,159.241 125.399,158.158 126.231 M217.795 127.767 C 217.873 128.671,218.418 129.439,218.442 128.679 C 218.456 128.259,218.310 127.819,218.118 127.700 C 217.927 127.582,217.781 127.612,217.795 127.767 M156.608 146.167 C 156.608 155.749,156.652 159.619,156.707 154.767 C 156.762 149.914,156.762 142.075,156.707 137.345 C 156.652 132.615,156.608 136.585,156.608 146.167 M218.627 145.993 C 218.627 154.713,218.673 158.280,218.728 153.920 C 218.783 149.560,218.783 142.426,218.728 138.066 C 218.673 133.706,218.627 137.274,218.627 145.993 M247.547 139.459 C 247.455 139.699,247.421 148.911,247.471 159.930 L 247.561 179.965 289.460 180.054 L 331.359 180.142 331.359 173.172 L 331.359 166.202 297.241 166.202 C 278.476 166.202,262.875 166.107,262.572 165.991 C 262.097 165.808,262.021 164.893,262.021 159.370 L 262.021 152.962 296.509 152.962 L 330.997 152.962 331.190 152.178 C 331.296 151.747,331.339 148.650,331.284 145.296 L 331.185 139.199 289.450 139.110 C 256.245 139.040,247.680 139.111,247.547 139.459 M330.662 145.991 L 330.662 152.610 296.254 152.699 L 261.847 152.787 261.847 159.582 L 261.847 166.376 296.254 166.465 L 330.662 166.554 330.662 173.172 L 330.662 179.791 289.199 179.791 L 247.735 179.791 247.735 159.582 L 247.735 139.373 289.199 139.373 L 330.662 139.373 330.662 145.991 M217.918 163.919 C 217.675 164.885,216.374 165.853,214.816 166.227 L 213.763 166.479 214.827 166.515 C 216.019 166.555,218.467 164.614,218.467 163.629 C 218.467 162.788,218.161 162.950,217.918 163.919 M113.121 164.182 C 112.892 165.085,111.825 165.852,110.279 166.226 C 109.380 166.444,109.350 166.484,110.063 166.515 C 111.628 166.582,114.251 164.309,113.488 163.546 C 113.398 163.456,113.233 163.742,113.121 164.182 M158.537 166.184 C 158.824 166.380,159.517 166.542,160.075 166.545 C 161.414 166.552,161.136 166.351,159.408 166.061 C 158.409 165.894,158.162 165.929,158.537 166.184 M47.411 168.496 C 47.425 169.630,47.567 170.871,47.728 171.254 C 47.901 171.666,47.943 170.882,47.830 169.338 C 47.596 166.142,47.378 165.704,47.411 168.496 M231.952 172.918 C 231.609 174.005,230.944 175.353,230.473 175.912 C 230.002 176.472,229.617 177.037,229.617 177.168 C 229.617 177.298,230.006 176.943,230.481 176.378 C 231.508 175.158,232.822 172.222,232.678 171.472 C 232.622 171.180,232.295 171.830,231.952 172.918 M48.103 172.550 C 48.023 175.003,51.677 178.513,55.804 179.951 C 58.374 180.846,117.589 180.742,120.331 179.837 C 124.043 178.612,127.889 174.821,127.871 172.404 C 127.869 172.155,127.502 172.735,127.055 173.693 C 125.666 176.669,123.380 178.516,119.547 179.756 C 117.506 180.417,57.728 180.272,55.804 179.602 C 51.993 178.275,49.981 176.534,48.749 173.497 C 48.405 172.647,48.114 172.221,48.103 172.550 M142.527 172.725 C 142.433 174.893,146.122 178.437,149.914 179.823 C 152.428 180.742,222.071 180.861,224.684 179.951 C 226.619 179.277,228.810 178.160,229.091 177.705 C 229.212 177.510,228.761 177.675,228.089 178.071 C 224.378 180.261,226.758 180.139,187.603 180.139 C 153.804 180.139,151.926 180.107,150.052 179.489 C 146.682 178.377,144.784 176.815,143.393 174.008 C 142.927 173.069,142.537 172.491,142.527 172.725 M179.094 196.864 C 178.537 197.042,179.543 197.147,181.882 197.153 C 184.221 197.160,185.289 197.056,184.843 196.864 C 183.973 196.490,180.261 196.490,179.094 196.864 M99.192 197.092 C 98.867 197.416,98.890 201.742,99.216 201.743 C 99.360 201.743,99.425 200.724,99.361 199.478 L 99.244 197.213 110.627 197.213 L 122.011 197.213 121.894 199.478 C 121.830 200.724,121.902 201.743,122.054 201.743 C 122.207 201.742,122.285 200.684,122.228 199.390 L 122.125 197.038 110.777 196.947 C 104.535 196.896,99.322 196.961,99.192 197.092 M135.768 197.125 C 135.679 197.269,139.707 197.387,144.720 197.387 L 153.833 197.387 153.937 199.382 L 154.041 201.378 147.665 201.485 L 141.289 201.593 147.735 201.580 L 154.181 201.568 154.287 199.710 C 154.456 196.760,154.806 196.864,144.751 196.864 C 139.899 196.864,135.857 196.982,135.768 197.125 M205.740 197.285 C 205.645 197.533,205.610 204.243,205.662 212.195 L 205.757 226.655 205.840 211.919 L 205.923 197.182 208.449 197.284 L 210.976 197.387 211.150 203.484 L 211.324 209.582 218.031 209.677 C 221.720 209.729,224.739 209.650,224.739 209.502 C 224.739 209.354,221.764 209.279,218.127 209.335 L 211.514 209.437 211.419 203.238 L 211.324 197.038 208.618 196.936 C 206.651 196.862,205.866 196.958,205.740 197.285 M224.975 197.111 C 224.881 197.263,226.004 197.387,227.471 197.387 L 230.139 197.387 230.230 211.649 C 230.302 222.828,230.226 225.972,229.882 226.191 C 229.566 226.392,229.614 226.472,230.056 226.476 C 230.634 226.481,230.664 225.618,230.579 211.760 L 230.488 197.038 227.817 196.937 C 226.348 196.881,225.069 196.960,224.975 197.111 M264.696 197.111 C 264.602 197.263,265.725 197.387,267.193 197.387 L 269.861 197.387 269.952 211.649 C 270.023 222.828,269.948 225.972,269.603 226.191 C 269.287 226.392,269.336 226.472,269.777 226.476 C 270.355 226.481,270.386 225.618,270.300 211.760 L 270.209 197.038 267.538 196.937 C 266.069 196.881,264.790 196.960,264.696 197.111 M283.996 197.358 C 283.510 197.943,283.634 201.459,284.146 201.628 C 284.363 201.700,284.450 200.881,284.378 199.469 L 284.260 197.194 295.756 197.290 C 302.078 197.343,307.178 197.269,307.089 197.125 C 306.759 196.592,284.445 196.817,283.996 197.358 M186.411 197.462 C 186.699 197.569,187.365 197.874,187.892 198.140 C 188.419 198.406,188.850 198.546,188.850 198.450 C 188.850 198.176,186.845 197.209,186.341 197.240 C 186.037 197.259,186.060 197.331,186.411 197.462 M171.482 200.530 C 169.432 202.427,167.228 206.097,167.262 207.556 C 167.270 207.904,167.544 207.483,167.872 206.620 C 169.204 203.111,170.696 201.160,173.522 199.234 C 174.000 198.909,174.203 198.635,173.975 198.625 C 173.746 198.614,172.624 199.472,171.482 200.530 M189.944 199.273 C 190.396 199.640,190.834 199.873,190.915 199.792 C 191.094 199.614,189.847 198.633,189.421 198.617 C 189.256 198.611,189.492 198.906,189.944 199.273 M191.317 201.055 C 191.302 201.347,190.828 202.092,190.264 202.710 C 189.699 203.327,189.378 203.833,189.549 203.833 C 190.070 203.833,191.715 201.447,191.524 200.969 C 191.397 200.655,191.336 200.680,191.317 201.055 M181.104 201.646 C 181.730 201.724,182.671 201.722,183.194 201.643 C 183.718 201.563,183.206 201.500,182.056 201.502 C 180.906 201.504,180.478 201.569,181.104 201.646 M107.666 213.995 C 107.801 223.537,107.938 226.269,108.284 226.339 C 108.528 226.388,108.568 226.349,108.371 226.251 C 108.137 226.136,108.014 221.869,108.014 213.908 C 108.014 207.217,107.896 201.742,107.753 201.742 C 107.609 201.742,107.570 207.256,107.666 213.995 M113.473 201.974 C 113.345 202.102,113.240 207.577,113.240 214.141 C 113.240 223.362,113.141 226.114,112.805 226.250 C 112.541 226.356,112.607 226.437,112.970 226.453 C 113.527 226.479,113.579 225.567,113.667 214.111 C 113.720 207.308,113.750 201.742,113.734 201.742 C 113.718 201.742,113.600 201.847,113.473 201.974 M292.759 213.830 C 292.717 220.574,292.801 226.164,292.944 226.253 C 293.182 226.401,293.176 216.932,292.931 205.923 C 292.878 203.528,292.800 207.086,292.759 213.830 M298.532 201.771 C 298.316 202.196,298.123 226.481,298.336 226.481 C 298.560 226.481,298.912 202.135,298.693 201.771 C 298.645 201.691,298.573 201.691,298.532 201.771 M176.441 203.211 C 174.663 204.575,172.833 207.096,173.289 207.552 C 173.383 207.646,173.728 207.156,174.056 206.465 C 174.384 205.774,175.360 204.585,176.226 203.824 C 177.933 202.321,178.055 201.971,176.441 203.211 M187.108 203.098 C 187.587 203.494,188.214 203.820,188.502 203.823 C 188.960 203.828,188.681 203.642,186.673 202.604 C 186.433 202.480,186.629 202.702,187.108 203.098 M172.692 209.451 C 172.422 210.797,172.465 213.486,172.774 214.584 C 172.900 215.035,173.004 213.820,173.004 211.883 C 173.004 207.963,172.998 207.918,172.692 209.451 M166.770 209.495 C 166.469 210.619,166.547 213.641,166.899 214.460 C 167.096 214.919,167.207 214.059,167.223 211.934 C 167.248 208.651,167.145 208.097,166.770 209.495 M141.114 209.485 C 141.115 209.624,143.349 209.780,146.080 209.834 L 151.045 209.930 151.252 211.672 L 151.458 213.415 151.508 211.847 C 151.535 210.984,151.438 210.091,151.293 209.863 C 151.001 209.404,141.113 209.037,141.114 209.485 M141.347 213.821 C 141.220 213.949,141.117 214.223,141.120 214.431 C 141.124 214.662,141.230 214.644,141.396 214.383 C 141.582 214.091,143.185 213.924,146.530 213.850 L 151.394 213.742 146.487 213.665 C 143.788 213.623,141.475 213.693,141.347 213.821 M211.382 213.821 C 211.254 213.949,211.150 216.758,211.150 220.064 C 211.150 224.546,211.039 226.119,210.714 226.250 C 210.454 226.355,210.524 226.437,210.889 226.453 C 211.448 226.479,211.498 225.961,211.498 220.217 L 211.498 213.952 218.206 213.850 L 224.913 213.747 218.264 213.668 C 214.607 213.624,211.510 213.693,211.382 213.821 M167.247 216.472 C 167.247 216.972,167.410 217.481,167.610 217.604 C 167.847 217.751,167.891 217.489,167.735 216.841 C 167.414 215.506,167.247 215.380,167.247 216.472 M173.171 216.308 C 173.171 217.896,176.828 221.363,178.920 221.758 L 179.965 221.955 178.920 221.553 C 176.852 220.757,174.989 219.192,174.219 217.603 C 173.490 216.096,173.171 215.702,173.171 216.308 M167.944 218.374 C 167.944 220.221,173.235 225.793,174.976 225.781 C 175.229 225.779,174.627 225.314,173.639 224.747 C 171.746 223.662,169.909 221.659,168.681 219.343 C 168.276 218.579,167.944 218.143,167.944 218.374 M187.591 219.920 C 186.131 221.019,185.767 221.410,186.715 220.861 C 189.167 219.443,188.934 219.457,190.172 220.657 C 190.884 221.347,191.264 222.008,191.166 222.386 C 191.078 222.722,191.148 222.997,191.322 222.997 C 192.046 222.997,191.552 221.669,190.378 220.460 C 188.902 218.940,188.895 218.939,187.591 219.920 M316.250 221.476 C 315.562 222.164,315.345 222.711,315.387 223.654 L 315.443 224.913 315.587 223.693 C 315.810 221.813,316.936 220.825,318.695 220.965 C 319.491 221.028,320.070 220.963,319.981 220.819 C 319.569 220.152,317.148 220.578,316.250 221.476 M335.432 221.344 C 333.833 222.624,334.274 226.481,336.020 226.481 C 336.225 226.481,336.044 226.237,335.618 225.938 C 333.615 224.536,335.071 220.906,337.636 220.906 C 340.057 220.906,341.448 224.047,339.719 225.612 C 339.335 225.960,339.098 226.323,339.194 226.418 C 339.628 226.852,340.767 224.888,340.767 223.705 C 340.767 221.013,337.598 219.611,335.432 221.344 M354.674 221.004 C 353.005 222.285,353.106 226.481,354.804 226.481 C 354.968 226.481,354.778 226.068,354.381 225.563 C 352.067 222.622,356.079 219.113,358.727 221.761 C 359.197 222.232,359.582 222.494,359.582 222.345 C 359.582 220.976,355.989 219.994,354.674 221.004 M320.906 221.951 C 322.090 224.163,321.158 226.115,318.741 226.486 C 317.545 226.669,317.380 226.773,317.914 227.006 C 320.445 228.108,323.194 222.843,320.846 221.391 C 320.644 221.267,320.671 221.512,320.906 221.951 M147.765 222.208 L 154.068 222.316 153.950 224.382 C 153.886 225.519,153.959 226.322,154.114 226.166 C 154.269 226.011,154.347 225.038,154.288 224.004 L 154.181 222.125 147.822 222.113 L 141.463 222.101 147.765 222.208 M180.928 222.201 C 181.458 222.281,182.242 222.279,182.670 222.196 C 183.099 222.114,182.666 222.048,181.707 222.051 C 180.749 222.053,180.398 222.121,180.928 222.201 M189.373 224.227 C 188.798 224.698,188.484 225.084,188.676 225.085 C 188.868 225.086,189.480 224.694,190.037 224.216 C 191.346 223.090,190.748 223.100,189.373 224.227 M358.782 225.644 C 358.437 226.104,358.282 226.481,358.437 226.481 C 358.740 226.481,359.702 225.088,359.519 224.913 C 359.458 224.855,359.126 225.184,358.782 225.644 M315.679 225.339 C 315.679 225.777,316.675 226.646,316.910 226.412 C 317.002 226.320,316.763 225.960,316.378 225.612 C 315.994 225.264,315.679 225.141,315.679 225.339 M175.784 226.132 C 175.902 226.324,176.343 226.470,176.763 226.456 C 177.499 226.433,177.501 226.421,176.829 226.132 C 175.870 225.720,175.529 225.720,175.784 226.132 M185.540 226.132 C 184.868 226.421,184.871 226.433,185.607 226.456 C 186.026 226.470,186.467 226.324,186.585 226.132 C 186.840 225.720,186.499 225.720,185.540 226.132 M178.746 226.829 C 179.225 226.983,180.322 227.108,181.185 227.108 C 182.047 227.108,183.145 226.983,183.624 226.829 C 184.190 226.648,183.335 226.550,181.185 226.550 C 179.034 226.550,178.180 226.648,178.746 226.829 M336.760 226.829 C 336.878 227.021,337.270 227.178,337.631 227.178 C 337.991 227.178,338.383 227.021,338.502 226.829 C 338.628 226.625,338.266 226.481,337.631 226.481 C 336.995 226.481,336.634 226.625,336.760 226.829 M355.872 226.877 C 356.323 227.139,356.743 227.143,357.266 226.890 C 357.919 226.574,357.836 226.526,356.620 226.515 C 355.461 226.504,355.335 226.565,355.872 226.877 M353.126 314.649 C 353.013 314.833,353.165 314.983,353.464 314.983 C 353.763 314.983,354.007 315.227,354.007 315.526 C 354.007 315.825,354.157 315.976,354.340 315.863 C 354.523 315.750,354.590 315.439,354.487 315.173 C 354.248 314.547,353.393 314.219,353.126 314.649 M359.743 314.655 C 359.609 314.872,359.063 314.929,358.416 314.795 C 357.403 314.584,357.369 314.606,357.979 315.069 C 358.607 315.546,358.612 315.632,358.066 316.725 C 357.388 318.084,357.363 318.239,357.877 317.921 C 358.334 317.639,357.955 319.835,357.455 320.366 C 357.283 320.548,357.137 321.332,357.131 322.108 C 357.118 323.507,357.114 323.512,356.620 322.648 C 355.929 321.440,355.973 322.014,356.685 323.508 C 357.248 324.688,357.244 324.764,356.598 325.282 C 355.948 325.803,355.951 325.809,356.688 325.453 C 357.108 325.250,357.549 324.927,357.667 324.737 C 357.784 324.546,358.271 324.390,358.749 324.390 C 359.226 324.390,360.063 324.159,360.609 323.877 C 361.484 323.424,361.653 323.424,362.029 323.877 C 362.574 324.534,364.096 324.536,365.031 323.881 C 365.662 323.440,365.845 323.438,366.416 323.870 C 367.268 324.516,368.428 324.518,369.669 323.877 C 370.543 323.424,370.712 323.424,371.088 323.877 C 371.937 324.900,375.261 323.577,375.261 322.217 C 375.261 322.014,374.790 322.342,374.213 322.945 C 373.054 324.158,372.303 324.302,371.191 323.523 C 370.535 323.063,370.335 323.063,369.458 323.520 C 368.177 324.189,367.279 324.178,366.512 323.484 C 365.948 322.974,365.830 322.974,365.101 323.484 C 364.108 324.180,363.091 324.194,362.137 323.527 C 361.485 323.070,361.276 323.074,360.301 323.560 C 357.743 324.836,356.885 323.415,358.054 319.839 C 358.691 317.893,361.175 317.020,360.721 318.902 C 360.571 319.524,360.624 319.601,360.974 319.274 C 361.787 318.517,361.101 317.770,359.593 317.770 C 358.820 317.770,358.188 317.622,358.188 317.442 C 358.188 316.938,358.810 316.669,359.056 317.067 C 359.176 317.262,359.446 317.422,359.656 317.422 C 359.869 317.422,359.793 317.150,359.486 316.812 C 358.755 316.003,359.310 314.983,360.481 314.983 C 361.507 314.983,361.946 315.859,361.376 316.771 C 361.134 317.159,361.109 317.422,361.314 317.422 C 361.504 317.422,361.759 317.023,361.881 316.536 C 362.232 315.140,360.426 313.550,359.743 314.655 M349.652 315.331 C 349.397 315.743,349.738 315.743,350.697 315.331 C 351.369 315.042,351.366 315.031,350.630 315.007 C 350.210 314.994,349.770 315.139,349.652 315.331 M355.405 316.016 C 354.826 317.416,354.016 318.092,353.983 317.203 C 353.963 316.639,353.908 316.658,353.580 317.338 C 353.071 318.393,353.490 318.727,354.348 317.951 C 355.215 317.166,356.525 314.983,356.128 314.983 C 355.966 314.983,355.641 315.448,355.405 316.016 M372.358 315.215 C 372.230 315.343,372.138 315.774,372.153 316.173 C 372.172 316.671,372.239 316.735,372.367 316.376 C 372.470 316.089,372.801 315.658,373.103 315.418 C 373.585 315.036,373.588 314.983,373.121 314.983 C 372.829 314.983,372.485 315.087,372.358 315.215 M374.498 315.282 C 374.796 315.472,374.877 315.920,374.731 316.584 C 374.561 317.355,374.596 317.471,374.879 317.073 C 375.482 316.225,375.346 314.982,374.652 314.988 C 374.194 314.992,374.156 315.065,374.498 315.282 M365.274 315.577 C 365.766 315.704,365.865 315.956,365.705 316.669 C 365.528 317.451,365.555 317.497,365.878 316.965 C 366.372 316.150,366.048 315.320,365.255 315.371 C 364.679 315.409,364.681 315.424,365.274 315.577 M347.388 316.549 C 346.939 317.027,346.637 317.464,346.718 317.518 C 346.798 317.573,347.285 317.181,347.800 316.648 C 348.315 316.115,348.617 315.679,348.471 315.679 C 348.325 315.679,347.837 316.071,347.388 316.549 M367.606 316.190 C 367.372 316.471,367.241 316.881,367.315 317.101 C 367.388 317.321,367.635 317.091,367.863 316.590 C 368.328 315.569,368.238 315.429,367.606 316.190 M369.942 317.160 C 369.796 317.542,369.943 317.805,370.383 317.944 C 371.190 318.200,370.985 318.884,369.964 319.345 C 369.548 319.533,369.150 319.922,369.077 320.209 C 368.979 320.600,369.071 320.578,369.442 320.122 C 370.174 319.221,371.053 319.330,370.849 320.296 C 370.702 320.993,370.728 321.011,371.077 320.463 C 371.294 320.124,371.366 319.517,371.238 319.113 C 371.082 318.621,371.132 318.458,371.391 318.618 C 371.603 318.749,371.777 318.703,371.777 318.516 C 371.777 318.329,371.868 317.888,371.980 317.537 C 372.167 316.947,372.146 316.943,371.698 317.484 C 371.187 318.101,370.596 317.933,370.325 317.091 C 370.192 316.677,370.123 316.689,369.942 317.160 M362.240 317.797 C 361.802 318.224,361.656 318.702,361.795 319.256 C 361.917 319.742,361.783 320.393,361.469 320.842 C 361.176 321.260,361.077 321.603,361.248 321.603 C 361.756 321.603,362.409 319.837,362.174 319.098 C 362.033 318.652,362.179 318.254,362.599 317.947 C 362.951 317.689,363.161 317.408,363.066 317.321 C 362.970 317.234,362.599 317.448,362.240 317.797 M374.042 318.467 C 373.911 318.879,373.882 319.295,373.978 319.390 C 374.074 319.486,374.259 319.227,374.390 318.815 C 374.521 318.403,374.550 317.988,374.454 317.892 C 374.358 317.796,374.173 318.055,374.042 318.467 M350.407 318.351 C 350.279 318.479,350.184 318.910,350.196 319.309 C 350.217 319.976,350.245 319.968,350.552 319.200 C 350.893 318.347,350.823 317.935,350.407 318.351 M356.120 318.966 C 355.436 319.694,355.379 319.947,355.708 320.794 L 356.089 321.777 355.899 320.679 C 355.748 319.806,355.870 319.467,356.492 319.031 C 356.923 318.730,357.194 318.402,357.094 318.302 C 356.995 318.203,356.556 318.501,356.120 318.966 M349.252 318.983 C 349.401 319.371,349.270 319.861,348.909 320.259 C 348.227 321.014,348.593 321.143,349.328 320.408 C 349.931 319.805,349.974 318.948,349.418 318.605 C 349.138 318.431,349.086 318.549,349.252 318.983 M346.690 319.965 C 346.690 320.277,347.043 320.718,347.474 320.944 L 348.258 321.356 347.565 320.521 C 347.183 320.062,346.831 319.621,346.781 319.541 C 346.731 319.461,346.690 319.652,346.690 319.965 M353.600 322.228 C 353.663 323.513,353.827 324.682,353.965 324.825 C 354.274 325.148,354.020 320.477,353.709 320.138 C 353.585 320.003,353.536 320.944,353.600 322.228 M360.274 320.296 C 360.271 320.536,360.175 321.084,360.059 321.516 C 359.895 322.129,359.991 322.294,360.499 322.272 C 360.857 322.257,360.960 322.168,360.728 322.073 C 360.462 321.966,360.381 321.525,360.510 320.881 C 360.622 320.320,360.616 319.861,360.497 319.861 C 360.377 319.861,360.277 320.057,360.274 320.296 M364.455 320.296 C 364.453 320.536,364.356 321.084,364.240 321.516 C 364.024 322.324,365.208 322.714,365.659 321.984 C 365.767 321.810,365.541 321.750,365.158 321.850 C 364.541 322.011,364.486 321.908,364.678 320.946 C 364.798 320.349,364.797 319.861,364.678 319.861 C 364.558 319.861,364.458 320.057,364.455 320.296 M349.483 321.341 C 349.487 321.975,349.553 322.025,349.826 321.603 C 350.262 320.927,350.262 320.557,349.826 320.557 C 349.634 320.557,349.480 320.910,349.483 321.341 M352.091 321.951 C 351.960 322.363,351.931 322.779,352.027 322.875 C 352.123 322.971,352.308 322.712,352.439 322.300 C 352.570 321.887,352.598 321.472,352.503 321.376 C 352.407 321.280,352.221 321.539,352.091 321.951 M368.669 321.669 C 368.626 322.591,369.190 322.707,370.086 321.961 C 370.537 321.585,370.710 321.272,370.470 321.266 C 370.231 321.260,370.035 321.411,370.035 321.603 C 370.035 322.104,369.081 322.033,368.872 321.516 C 368.764 321.248,368.686 321.307,368.669 321.669 M373.714 321.788 C 372.853 322.439,373.419 322.432,374.564 321.777 C 375.070 321.488,375.216 321.279,374.913 321.278 C 374.625 321.277,374.086 321.507,373.714 321.788 M348.970 323.107 C 348.809 323.469,348.838 323.891,349.038 324.091 C 349.552 324.604,351.661 324.306,351.846 323.693 C 351.973 323.272,351.914 323.255,351.542 323.606 C 350.765 324.339,349.543 324.141,349.389 323.258 C 349.265 322.550,349.224 322.535,348.970 323.107 " stroke="none" fill="#6b7272" fill-rule="evenodd"></path><path id="path3" d="M114.102 112.631 C 113.829 113.368,113.746 164.420,114.019 163.991 C 114.160 163.770,114.277 152.107,114.280 138.073 L 114.286 112.558 121.341 112.456 L 128.397 112.354 121.331 112.275 C 115.936 112.214,114.226 112.298,114.102 112.631 M151.829 112.441 C 152.260 112.524,152.966 112.524,153.397 112.441 C 153.828 112.358,153.476 112.290,152.613 112.290 C 151.751 112.290,151.398 112.358,151.829 112.441 M221.868 112.442 C 222.302 112.525,222.929 112.522,223.262 112.435 C 223.595 112.347,223.240 112.279,222.474 112.283 C 221.707 112.287,221.435 112.358,221.868 112.442 M294.156 112.456 L 330.298 112.547 330.405 118.991 L 330.512 125.436 330.500 118.903 L 330.488 112.369 294.251 112.367 L 258.014 112.364 294.156 112.456 M225.784 113.052 C 225.784 113.148,226.411 113.546,227.178 113.937 C 227.944 114.328,228.571 114.570,228.571 114.474 C 228.571 114.378,227.944 113.980,227.178 113.589 C 226.411 113.198,225.784 112.956,225.784 113.052 M142.382 122.174 C 142.087 124.328,142.147 168.380,142.447 170.383 C 142.577 171.246,142.683 160.388,142.683 146.254 C 142.683 132.121,142.665 120.558,142.643 120.558 C 142.621 120.557,142.504 121.285,142.382 122.174 M247.929 122.145 C 247.798 122.844,247.760 123.486,247.845 123.571 C 247.930 123.656,248.107 123.154,248.238 122.455 C 248.370 121.755,248.407 121.113,248.322 121.028 C 248.237 120.943,248.060 121.446,247.929 122.145 M232.569 146.167 C 232.569 159.774,232.612 165.390,232.665 158.649 C 232.718 151.908,232.718 140.776,232.665 133.911 C 232.613 127.045,232.569 132.561,232.569 146.167 M173.955 125.348 C 181.381 125.401,193.532 125.401,200.958 125.348 C 208.384 125.296,202.308 125.253,187.456 125.253 C 172.605 125.253,166.529 125.296,173.955 125.348 M218.976 145.993 C 218.976 154.904,219.021 158.550,219.076 154.094 C 219.131 149.639,219.131 142.348,219.076 137.892 C 219.021 133.436,218.976 137.082,218.976 145.993 M155.910 145.993 C 155.910 154.713,155.955 158.280,156.010 153.920 C 156.065 149.560,156.065 142.426,156.010 138.066 C 155.955 133.706,155.910 137.274,155.910 145.993 M289.111 139.633 L 330.314 139.724 330.314 145.993 L 330.314 152.261 296.167 152.353 L 262.021 152.444 296.254 152.442 L 330.488 152.439 330.488 145.993 L 330.488 139.547 289.199 139.545 L 247.909 139.543 289.111 139.633 M295.906 166.811 L 330.314 166.902 330.314 173.171 L 330.314 179.440 289.024 179.530 L 247.735 179.621 289.111 179.619 L 330.488 179.617 330.488 173.171 L 330.488 166.725 295.993 166.722 L 261.498 166.720 295.906 166.811 M47.805 169.164 C 47.805 169.547,47.930 170.253,48.084 170.732 C 48.305 171.421,48.363 171.458,48.363 170.906 C 48.363 170.523,48.237 169.817,48.084 169.338 C 47.863 168.648,47.805 168.612,47.805 169.164 M127.725 170.234 C 127.597 170.745,127.559 171.230,127.642 171.312 C 127.724 171.394,127.896 171.043,128.024 170.533 C 128.152 170.022,128.190 169.537,128.108 169.455 C 128.025 169.373,127.853 169.723,127.725 170.234 M56.794 179.773 C 57.082 179.968,57.774 180.131,58.333 180.134 C 59.672 180.141,59.394 179.939,57.666 179.650 C 56.667 179.483,56.420 179.518,56.794 179.773 M117.596 179.791 C 116.631 180.036,116.618 180.060,117.422 180.093 C 117.901 180.113,118.528 179.977,118.815 179.791 C 119.408 179.408,119.102 179.408,117.596 179.791 M151.394 179.775 C 152.063 180.078,153.929 180.275,153.630 180.011 C 153.550 179.941,152.857 179.788,152.091 179.671 C 151.119 179.523,150.908 179.555,151.394 179.775 M222.300 179.791 C 221.094 180.045,221.092 180.048,222.125 180.088 C 222.700 180.110,223.406 179.977,223.693 179.791 C 224.274 179.416,224.081 179.416,222.300 179.791 M99.446 197.692 C 99.344 197.956,99.321 198.936,99.394 199.870 L 99.526 201.568 99.589 199.569 L 99.652 197.571 110.714 197.474 L 121.777 197.377 110.703 197.295 C 101.565 197.227,99.598 197.296,99.446 197.692 M136.050 197.643 C 135.957 197.886,135.923 204.435,135.976 212.196 L 136.071 226.307 136.154 211.934 L 136.237 197.561 144.930 197.561 L 153.624 197.561 153.754 199.390 L 153.885 201.220 153.859 199.303 L 153.833 197.387 145.026 197.294 C 138.165 197.221,136.182 197.298,136.050 197.643 M180.052 197.469 C 181.058 197.540,182.705 197.540,183.711 197.469 C 184.717 197.399,183.894 197.341,181.882 197.341 C 179.869 197.341,179.046 197.399,180.052 197.469 M206.874 197.464 C 207.492 197.541,208.590 197.542,209.313 197.467 C 210.036 197.391,209.530 197.328,208.188 197.327 C 206.847 197.325,206.255 197.387,206.874 197.464 M226.038 197.464 C 226.656 197.541,227.754 197.542,228.477 197.467 C 229.199 197.391,228.693 197.328,227.352 197.327 C 226.010 197.325,225.419 197.387,226.038 197.464 M265.759 197.464 C 266.377 197.541,267.475 197.542,268.198 197.467 C 268.921 197.391,268.415 197.328,267.073 197.327 C 265.732 197.325,265.140 197.387,265.759 197.464 M284.463 197.692 C 284.362 197.956,284.338 198.936,284.411 199.870 L 284.543 201.568 284.606 199.569 L 284.669 197.571 295.906 197.474 L 307.143 197.377 295.895 197.295 C 286.609 197.227,284.615 197.296,284.463 197.692 M186.411 197.721 C 186.411 197.877,188.503 198.955,188.807 198.955 C 189.109 198.955,187.713 198.055,187.021 197.804 C 186.686 197.682,186.411 197.645,186.411 197.721 M210.945 203.484 C 210.945 206.838,210.997 208.210,211.061 206.533 C 211.125 204.856,211.125 202.112,211.061 200.436 C 210.997 198.759,210.945 200.131,210.945 203.484 M230.124 211.847 C 230.124 219.800,230.170 223.053,230.226 219.077 C 230.282 215.100,230.282 208.593,230.226 204.617 C 230.170 200.640,230.124 203.894,230.124 211.847 M269.846 211.847 C 269.846 219.800,269.891 223.053,269.947 219.077 C 270.003 215.100,270.003 208.593,269.947 204.617 C 269.891 200.640,269.846 203.894,269.846 211.847 M108.014 213.867 L 108.188 226.307 108.280 214.134 C 108.330 207.438,108.252 201.841,108.106 201.694 C 107.959 201.548,107.918 207.026,108.014 213.867 M113.051 201.831 C 112.958 202.072,112.924 207.678,112.975 214.288 L 113.067 226.307 113.241 213.850 C 113.336 206.999,113.371 201.393,113.317 201.394 C 113.263 201.394,113.143 201.591,113.051 201.831 M140.650 201.626 C 140.139 202.138,140.401 208.905,140.960 209.602 C 141.478 210.249,141.485 210.243,141.112 209.476 C 140.876 208.991,140.766 207.236,140.832 205.033 C 140.892 203.031,140.928 201.393,140.912 201.393 C 140.896 201.393,140.778 201.498,140.650 201.626 M298.080 202.178 C 297.975 202.609,297.935 208.214,297.991 214.634 L 298.093 226.307 298.176 214.268 C 298.236 205.465,298.370 202.118,298.676 201.812 C 298.994 201.494,298.995 201.394,298.683 201.394 C 298.456 201.394,298.185 201.747,298.080 202.178 M172.358 208.943 C 172.037 209.264,172.064 214.555,172.387 214.755 C 172.530 214.843,172.648 213.520,172.648 211.813 C 172.648 210.107,172.635 208.711,172.619 208.711 C 172.603 208.711,172.485 208.815,172.358 208.943 M167.369 211.847 C 167.369 213.476,167.429 214.142,167.503 213.328 C 167.576 212.513,167.576 211.180,167.503 210.366 C 167.429 209.551,167.369 210.218,167.369 211.847 M150.966 211.847 C 150.966 212.709,151.034 213.062,151.117 212.631 C 151.200 212.199,151.200 211.494,151.117 211.063 C 151.034 210.632,150.966 210.984,150.966 211.847 M213.589 213.480 C 219.104 213.730,225.009 213.741,224.860 213.502 C 224.771 213.358,221.689 213.271,218.011 213.309 C 214.333 213.346,212.343 213.423,213.589 213.480 M140.630 214.140 C 140.325 214.934,140.369 221.880,140.679 222.071 C 140.823 222.159,140.941 220.287,140.941 217.910 C 140.941 215.533,140.918 213.588,140.891 213.589 C 140.864 213.589,140.746 213.837,140.630 214.140 M210.946 219.861 C 210.946 223.406,210.998 224.856,211.061 223.084 C 211.124 221.311,211.124 218.410,211.061 216.638 C 210.998 214.865,210.946 216.315,210.946 219.861 M174.216 218.924 C 174.216 218.984,174.726 219.494,175.348 220.057 L 176.481 221.080 175.457 219.948 C 174.504 218.892,174.216 218.655,174.216 218.924 M339.111 221.613 C 339.639 222.022,340.082 222.619,340.097 222.938 C 340.115 223.319,340.187 223.365,340.304 223.072 C 340.520 222.535,339.875 221.695,338.879 221.216 C 338.425 220.998,338.512 221.146,339.111 221.613 M153.767 224.216 C 153.768 225.366,153.834 225.794,153.911 225.168 C 153.989 224.542,153.987 223.601,153.908 223.077 C 153.828 222.554,153.765 223.066,153.767 224.216 M179.530 226.389 C 180.440 226.460,181.929 226.460,182.840 226.389 C 183.750 226.317,183.005 226.258,181.185 226.258 C 179.364 226.258,178.619 226.317,179.530 226.389 M317.857 226.373 C 318.193 226.460,318.741 226.460,319.077 226.373 C 319.412 226.285,319.138 226.213,318.467 226.213 C 317.796 226.213,317.522 226.285,317.857 226.373 M337.021 226.373 C 337.356 226.460,337.905 226.460,338.240 226.373 C 338.576 226.285,338.301 226.213,337.631 226.213 C 336.960 226.213,336.686 226.285,337.021 226.373 M356.015 226.379 C 356.448 226.462,357.075 226.459,357.408 226.372 C 357.741 226.285,357.387 226.216,356.620 226.220 C 355.854 226.224,355.581 226.295,356.015 226.379 M368.104 316.051 C 367.978 316.255,367.969 316.517,368.084 316.632 C 368.199 316.747,368.293 316.640,368.293 316.395 C 368.293 316.099,368.639 316.000,369.320 316.099 C 369.884 316.182,370.267 316.122,370.170 315.965 C 369.914 315.550,368.374 315.615,368.104 316.051 M365.043 318.902 C 364.523 319.282,364.598 319.338,365.629 319.338 C 366.431 319.338,366.757 319.198,366.643 318.902 C 366.551 318.663,366.288 318.467,366.057 318.467 C 365.827 318.467,365.370 318.663,365.043 318.902 M363.874 321.773 C 363.916 322.179,364.232 322.495,364.638 322.537 C 365.141 322.589,365.169 322.560,364.743 322.432 C 364.419 322.336,364.075 321.992,363.979 321.668 C 363.851 321.242,363.823 321.271,363.874 321.773 M360.473 323.182 C 360.101 323.463,359.975 323.693,360.192 323.693 C 360.409 323.693,360.690 323.526,360.816 323.321 C 360.943 323.116,361.274 323.036,361.552 323.143 C 361.834 323.251,361.963 323.185,361.844 322.993 C 361.560 322.533,361.280 322.572,360.473 323.182 " stroke="none" fill="#949496" fill-rule="evenodd"></path><path id="path4" d="M156.258 146.167 C 156.258 155.174,156.303 158.909,156.359 154.467 C 156.414 150.024,156.414 142.655,156.359 138.090 C 156.304 133.526,156.258 137.160,156.258 146.167 M63.328 166.812 C 71.999 166.864,86.189 166.864,94.861 166.812 C 103.532 166.760,96.437 166.717,79.094 166.717 C 61.751 166.717,54.656 166.760,63.328 166.812 M173.806 166.812 C 181.534 166.864,194.078 166.864,201.681 166.812 C 209.284 166.759,202.962 166.717,187.631 166.717 C 172.300 166.717,166.079 166.759,173.806 166.812 M135.699 197.649 C 135.607 197.888,135.573 204.435,135.623 212.196 L 135.715 226.307 135.889 211.759 C 135.984 203.759,136.019 197.212,135.965 197.212 C 135.911 197.212,135.791 197.409,135.699 197.649 M224.881 203.310 C 224.881 206.568,224.933 207.948,224.998 206.376 C 225.062 204.804,225.062 202.139,224.998 200.453 C 224.934 198.766,224.882 200.052,224.881 203.310 M264.628 211.934 L 264.634 226.307 266.899 226.330 L 269.164 226.354 266.990 226.228 L 264.816 226.101 264.719 211.831 L 264.622 197.561 264.628 211.934 M307.031 199.379 L 306.969 201.372 302.875 201.482 L 298.780 201.592 302.885 201.667 C 307.520 201.752,307.438 201.801,307.227 199.085 L 307.094 197.387 307.031 199.379 M101.669 201.652 C 102.874 201.720,104.755 201.720,105.850 201.651 C 106.944 201.582,105.958 201.526,103.659 201.527 C 101.359 201.527,100.463 201.584,101.669 201.652 M113.467 201.655 C 113.378 201.799,114.584 201.874,116.147 201.823 C 121.269 201.653,121.848 201.517,117.703 201.455 C 115.463 201.421,113.557 201.511,113.467 201.655 M140.916 201.854 C 140.819 202.107,140.786 203.871,140.843 205.774 L 140.946 209.233 141.117 205.313 C 141.287 201.433,141.260 200.959,140.916 201.854 M286.686 201.652 C 287.891 201.720,289.773 201.720,290.867 201.651 C 291.962 201.582,290.976 201.526,288.676 201.527 C 286.376 201.527,285.481 201.584,286.686 201.652 M142.857 209.988 C 146.598 210.241,151.142 210.258,150.993 210.017 C 150.903 209.874,148.683 209.784,146.060 209.819 C 143.436 209.853,141.995 209.929,142.857 209.988 M214.895 210.016 C 216.668 210.079,219.569 210.079,221.341 210.016 C 223.114 209.952,221.664 209.901,218.118 209.901 C 214.573 209.901,213.123 209.952,214.895 210.016 M224.900 220.122 L 224.913 226.307 227.266 226.332 L 229.620 226.358 227.361 226.230 L 225.103 226.101 224.996 220.019 L 224.888 213.937 224.900 220.122 M140.825 218.011 C 140.793 220.155,140.884 221.983,141.028 222.073 C 141.172 222.162,141.247 220.956,141.195 219.393 C 141.034 214.509,140.886 213.956,140.825 218.011 M109.675 226.385 C 110.301 226.462,111.242 226.461,111.766 226.381 C 112.289 226.302,111.777 226.238,110.627 226.240 C 109.477 226.242,109.049 226.307,109.675 226.385 M140.505 226.393 C 142.949 226.453,146.947 226.453,149.390 226.393 C 151.834 226.333,149.834 226.284,144.948 226.284 C 140.061 226.284,138.062 226.333,140.505 226.393 M206.874 226.384 C 207.492 226.461,208.590 226.462,209.313 226.387 C 210.036 226.311,209.530 226.248,208.188 226.247 C 206.847 226.245,206.255 226.307,206.874 226.384 M294.330 226.384 C 294.949 226.461,296.046 226.462,296.769 226.387 C 297.492 226.311,296.986 226.248,295.645 226.247 C 294.303 226.245,293.712 226.307,294.330 226.384 " stroke="none" fill="#848c8e" fill-rule="evenodd"></path></g></svg>