<?xml version="1.0" standalone="no"?>
<!DOCTYPE svg PUBLIC "-//W3C//DTD SVG 20010904//EN"
 "http://www.w3.org/TR/2001/REC-SVG-20010904/DTD/svg10.dtd">
<svg version="1.0" xmlns="http://www.w3.org/2000/svg"
 width="800.000000pt" height="800.000000pt" viewBox="0 0 800.000000 800.000000"
 preserveAspectRatio="xMidYMid meet">

<g transform="translate(0.000000,800.000000) scale(0.100000,-0.100000)"
fill="#000000" stroke="none">
<path d="M0 4000 l0 -4000 4000 0 4000 0 0 4000 0 4000 -4000 0 -4000 0 0
-4000z m970 250 l0 -320 -65 0 -65 0 0 320 0 320 65 0 65 0 0 -320z m659 198
c-3 -103 -7 -129 -25 -158 l-21 -36 21 -39 c18 -34 21 -58 21 -160 l0 -120
-61 -3 -62 -3 -4 112 c-5 154 2 149 -224 149 l-174 0 0 65 0 65 178 0 c97 0
182 4 189 8 22 14 33 63 33 153 l0 89 66 0 66 0 -3 -122z m271 -133 l0 -255
315 0 315 0 0 -22 c0 -41 -36 -86 -77 -98 -25 -7 -147 -10 -363 -8 l-325 3 -3
318 -2 317 70 0 70 0 0 -255z m1567 231 l28 -24 3 -260 3 -261 -30 -33 -29
-33 -367 0 -367 0 -29 33 -29 32 0 256 0 256 29 29 29 29 366 0 365 0 28 -24z
m558 -198 c136 -123 251 -224 256 -226 5 -2 9 93 9 222 l0 226 65 0 65 0 0
-320 0 -320 -65 0 -64 0 -326 291 c-179 161 -325 299 -325 308 0 30 23 41 81
41 l57 0 247 -222z m1303 160 l-3 -63 -390 0 -390 0 -3 63 -3 62 396 0 396 0
-3 -62z m910 0 l-3 -63 -384 -3 c-225 -1 -389 2 -394 7 -14 14 11 78 40 101
25 19 40 20 385 20 l359 0 -3 -62z m270 -255 l-3 -318 -65 0 -65 0 -3 318 -2
317 70 0 70 0 -2 -317z m652 200 c0 -96 -4 -124 -20 -158 -20 -41 -20 -41 0
-80 17 -33 20 -59 20 -163 l0 -123 -62 3 -63 3 -5 113 c-4 98 -8 116 -24 128
-15 11 -59 14 -193 14 l-173 0 0 65 0 65 179 0 c220 0 211 -7 211 147 l0 103
65 0 65 0 0 -117z m-3390 -385 l0 -138 -65 0 -65 0 0 196 0 195 65 -58 65 -58
0 -137z m1230 57 l0 -196 -67 3 -68 3 -2 178 c-1 99 1 185 4 193 4 10 23 14
69 14 l64 0 0 -195z m1240 130 l0 -65 -325 0 -325 0 0 -65 0 -65 325 0 326 0
-3 -62 -3 -63 -390 0 -390 0 -3 193 -2 192 395 0 395 0 0 -65z m-2604 -756
c13 -11 13 -14 1 -27 -11 -11 -19 -11 -35 -3 -35 19 -81 13 -107 -14 -35 -34
-35 -106 0 -140 26 -27 72 -33 107 -14 14 8 23 8 31 0 16 -16 -19 -49 -59 -57
-73 -14 -146 39 -159 115 -8 49 21 123 57 142 53 28 128 28 164 -2z m-646 1
c0 -17 -7 -20 -40 -20 l-40 0 0 -115 0 -115 -25 0 -25 0 0 115 0 115 -40 0
c-33 0 -40 3 -40 20 0 19 7 20 105 20 98 0 105 -1 105 -20z m300 0 c0 -18 -7
-20 -60 -20 l-60 0 0 -34 c0 -34 1 -35 48 -38 39 -3 47 -6 47 -23 0 -17 -8
-20 -47 -23 -47 -3 -48 -4 -48 -38 l0 -34 60 0 c53 0 60 -2 60 -20 0 -18 -7
-20 -85 -20 l-85 0 0 135 0 135 85 0 c78 0 85 -2 85 -20z m540 -40 l0 -61 63
3 62 3 3 58 c3 53 5 57 27 57 l25 0 0 -135 0 -135 -25 0 c-22 0 -24 4 -27 58
l-3 57 -62 3 -63 3 0 -61 c0 -57 -1 -60 -25 -60 l-25 0 0 135 0 135 25 0 c24
0 25 -3 25 -60z m550 -75 l0 -135 -25 0 -25 0 0 135 0 135 25 0 25 0 0 -135z
m350 115 c0 -17 -7 -20 -40 -20 l-40 0 0 -115 0 -115 -25 0 -25 0 0 115 0 115
-45 0 c-38 0 -45 3 -45 20 0 19 7 20 110 20 103 0 110 -1 110 -20z m134 -217
c4 -9 1 -23 -7 -30 -7 -8 -21 -11 -30 -7 -17 6 -23 35 -10 47 12 13 41 7 47
-10z m175 4 c15 -19 -9 -50 -32 -41 -17 6 -23 35 -10 47 10 11 30 8 42 -6z
m179 -15 c4 -30 -26 -42 -44 -17 -10 14 -11 22 -2 32 16 20 42 12 46 -15z
m1856 -2639 l-7 -38 21 19 c12 10 24 27 27 37 8 24 55 26 55 3 0 -8 -14 -30
-31 -47 -29 -29 -31 -34 -22 -67 6 -19 13 -43 17 -52 5 -11 1 -20 -14 -28 -28
-15 -36 -4 -45 62 -4 26 -10 48 -14 48 -4 0 -13 -18 -20 -40 -10 -33 -16 -40
-36 -40 -14 0 -25 1 -25 3 0 1 9 31 20 65 25 80 25 85 -1 71 -15 -8 -20 -18
-16 -35 6 -34 -20 -55 -39 -29 -38 51 15 100 114 104 21 1 22 -2 16 -36z m156
17 c0 -24 -26 -38 -42 -22 -16 16 -2 42 22 42 13 0 20 -7 20 -20z m78 -15 c-4
-21 -1 -25 18 -25 17 0 24 6 24 20 0 11 4 20 9 20 5 0 17 3 27 7 14 5 16 2 12
-20 -4 -19 -1 -27 8 -27 21 0 17 -17 -5 -23 -17 -4 -38 -53 -27 -64 15 -15 36
13 56 71 19 58 25 66 47 66 16 0 23 -5 21 -12 -24 -65 -39 -120 -33 -126 3 -3
10 0 15 8 5 8 11 12 14 9 3 -3 -1 -15 -10 -27 -16 -23 -58 -30 -70 -11 -4 8
-9 8 -17 0 -14 -14 -60 -14 -74 0 -8 8 -13 8 -17 0 -9 -14 -63 -14 -71 -1 -4
7 -12 7 -25 0 -26 -14 -57 -13 -62 2 -3 7 0 33 7 58 8 34 16 46 33 48 25 4 27
-6 13 -56 -11 -35 -2 -41 21 -14 22 25 30 52 15 52 -7 1 -5 6 6 14 9 7 17 20
17 29 0 14 14 22 44 26 4 0 6 -10 4 -24z"/>
<path d="M2790 4421 c-5 -11 -10 -86 -10 -171 0 -85 5 -160 10 -171 10 -18 24
-19 278 -19 150 0 274 4 282 10 12 7 16 40 18 169 2 103 -1 167 -8 180 -10 20
-18 21 -285 21 -261 0 -275 -1 -285 -19z"/>
<path d="M7290 564 c-14 -36 -12 -46 7 -42 9 2 23 18 30 36 12 30 12 32 -7 32
-13 0 -24 -10 -30 -26z"/>
</g>
</svg>
