<svg width="74" height="41" viewBox="0 0 74 41" fill="none" xmlns="http://www.w3.org/2000/svg">
<g clip-path="url(#clip0_104_2)">
<rect width="74" height="41" fill="white"/>
<path d="M0 20.5V41H37H74V20.5V-8.58307e-06H37H0V20.5ZM8.9725 19.2187V20.8587H8.37125H7.77V19.2187V17.5787H8.37125H8.9725V19.2187ZM15.0683 18.204C15.0405 18.7319 15.0035 18.8651 14.837 19.0137L14.6428 19.1982L14.837 19.3981C15.0035 19.5724 15.0313 19.6954 15.0313 20.2181V20.8331L14.467 20.8485L13.8935 20.8639L13.8565 20.2899C13.8103 19.5006 13.875 19.5262 11.7845 19.5262H10.175V19.1931V18.86H11.8215C12.7188 18.86 13.505 18.8395 13.5698 18.819C13.7733 18.7472 13.875 18.4961 13.875 18.0349V17.5787H14.4855H15.096L15.0683 18.204ZM17.575 18.8856V20.1925H20.4888H23.4025V20.3052C23.4025 20.5154 23.0695 20.746 22.6903 20.8075C22.459 20.8434 21.3305 20.8587 19.3325 20.8485L16.3263 20.8331L16.2985 19.2034L16.28 17.5787H16.9275H17.575V18.8856ZM32.0698 17.7017L32.3288 17.8247L32.3565 19.1572L32.3843 20.4949L32.1068 20.664L31.8385 20.8331H28.4438H25.049L24.7808 20.664L24.5125 20.5V19.188V17.876L24.7808 17.7274L25.049 17.5787H28.4345H31.8108L32.0698 17.7017ZM37.2313 18.7165C38.4893 19.3469 39.553 19.8645 39.5993 19.8747C39.6455 19.885 39.6825 19.3981 39.6825 18.737V17.5787H40.2838H40.885V19.2187V20.8587H40.2838H39.6918L36.6763 19.3674C35.0205 18.5422 33.67 17.835 33.67 17.7889C33.67 17.6351 33.8828 17.5787 34.4193 17.5787H34.9465L37.2313 18.7165ZM49.284 17.8965L49.2563 18.2194H45.6488H42.0413L42.0135 17.8965L41.9858 17.5787H45.6488H49.3118L49.284 17.8965ZM57.7015 17.8965L57.6738 18.2194L54.1218 18.2347C52.0405 18.2399 50.5235 18.2245 50.4773 18.1989C50.3478 18.1271 50.579 17.7991 50.8473 17.6812C51.0785 17.5839 51.2173 17.5787 54.4085 17.5787H57.7293L57.7015 17.8965ZM60.199 19.2034L60.1713 20.8331H59.57H58.9688L58.941 19.2034L58.9225 17.5787H59.57H60.2175L60.199 19.2034ZM66.23 18.1784C66.23 18.6704 66.193 18.8139 66.045 18.9881C65.86 19.1982 65.86 19.1982 66.045 19.3981C66.2023 19.5672 66.23 19.7005 66.23 20.2335V20.8639L65.6565 20.8485L65.0738 20.8331L65.0275 20.254C64.9905 19.7517 64.9535 19.6595 64.8055 19.598C64.6668 19.5416 64.2598 19.5262 63.0203 19.5262H61.42V19.1931V18.86H63.0758C65.1108 18.86 65.0275 18.8959 65.0275 18.1066V17.5787H65.6288H66.23V18.1784ZM34.8725 20.1515V20.8587H34.2713H33.67V19.8542V18.8549L34.2713 19.1521L34.8725 19.4494V20.1515ZM46.25 19.8594V20.8639L45.6303 20.8485L45.0013 20.8331L44.9828 19.9209C44.9735 19.4135 44.992 18.9727 45.0198 18.9317C45.0568 18.8805 45.2325 18.86 45.658 18.86H46.25V19.8594ZM57.72 19.1931V19.5262H54.7138H51.7075V19.8594V20.1925H54.7138H57.7293L57.7015 20.5102L57.6738 20.8331H54.0663H50.4588L50.431 19.844L50.4125 18.86H54.0663H57.72V19.1931ZM33.633 23.0676C33.7533 23.124 33.7533 23.1394 33.6423 23.206C33.5405 23.2624 33.4665 23.2624 33.3185 23.2214C32.9948 23.124 32.5693 23.1547 32.3288 23.2931C32.005 23.4674 32.005 23.8364 32.3288 24.0106C32.5693 24.149 32.9948 24.1797 33.3185 24.0824C33.448 24.0414 33.5313 24.0414 33.6053 24.0824C33.7533 24.1644 33.4295 24.3335 33.0595 24.3745C32.3843 24.4462 31.709 24.1746 31.5888 23.7851C31.5148 23.534 31.783 23.1547 32.116 23.0574C32.6063 22.9139 33.3 22.9139 33.633 23.0676ZM27.6575 23.0625C27.6575 23.1496 27.5928 23.165 27.2875 23.165H26.9175V23.7544V24.3437H26.6863H26.455V23.7544V23.165H26.085C25.7798 23.165 25.715 23.1496 25.715 23.0625C25.715 22.9651 25.7798 22.96 26.6863 22.96C27.5928 22.96 27.6575 22.9651 27.6575 23.0625ZM30.4325 23.0625C30.4325 23.1547 30.3678 23.165 29.8775 23.165H29.3225V23.3392C29.3225 23.5135 29.3318 23.5186 29.7665 23.534C30.1273 23.5494 30.2013 23.5647 30.2013 23.6519C30.2013 23.739 30.1273 23.7544 29.7665 23.7697C29.3318 23.7851 29.3225 23.7902 29.3225 23.9645V24.1387H29.8775C30.3678 24.1387 30.4325 24.149 30.4325 24.2412C30.4325 24.3335 30.3678 24.3437 29.6463 24.3437H28.86V23.6519V22.96H29.6463C30.3678 22.96 30.4325 22.9702 30.4325 23.0625ZM35.4275 23.2675V23.5801L36.0103 23.5647L36.5838 23.5494L36.6115 23.2521C36.6393 22.9805 36.6578 22.96 36.8613 22.96H37.0925V23.6519V24.3437H36.8613C36.6578 24.3437 36.6393 24.3232 36.6115 24.0465L36.5838 23.7544L36.0103 23.739L35.4275 23.7236V24.0362C35.4275 24.3284 35.4183 24.3437 35.1963 24.3437H34.965V23.6519V22.96H35.1963C35.4183 22.96 35.4275 22.9754 35.4275 23.2675ZM40.515 23.6519V24.3437H40.2838H40.0525V23.6519V22.96H40.2838H40.515V23.6519ZM43.7525 23.0625C43.7525 23.1496 43.6878 23.165 43.3825 23.165H43.0125V23.7544V24.3437H42.7813H42.55V23.7544V23.165H42.1338C41.7823 23.165 41.7175 23.1496 41.7175 23.0625C41.7175 22.9651 41.7823 22.96 42.735 22.96C43.6878 22.96 43.7525 22.9651 43.7525 23.0625ZM44.992 24.1746C45.029 24.2207 45.0013 24.2925 44.9273 24.3284C44.8625 24.3694 44.733 24.3847 44.6498 24.3642C44.4925 24.3335 44.437 24.1849 44.5573 24.1234C44.6683 24.0567 44.9365 24.0875 44.992 24.1746ZM46.6108 24.1541C46.7495 24.2515 46.5275 24.4104 46.3148 24.3642C46.1575 24.3335 46.102 24.1849 46.2223 24.1234C46.3148 24.067 46.4998 24.0824 46.6108 24.1541ZM48.2665 24.231C48.3035 24.3847 48.026 24.4462 47.8595 24.3181C47.767 24.2464 47.7578 24.2054 47.841 24.1541C47.989 24.0516 48.2295 24.0926 48.2665 24.231ZM65.4345 37.7559L65.3698 37.9506L65.564 37.8532C65.675 37.802 65.786 37.7149 65.8138 37.6636C65.8878 37.5406 66.3225 37.5304 66.3225 37.6482C66.3225 37.6892 66.193 37.802 66.0358 37.8891C65.7675 38.0377 65.749 38.0634 65.8323 38.2325C65.8878 38.3299 65.9525 38.4529 65.9895 38.499C66.0358 38.5554 65.9988 38.6015 65.86 38.6425C65.601 38.7194 65.527 38.663 65.4438 38.3247C65.4068 38.1915 65.3513 38.0787 65.3143 38.0787C65.2773 38.0787 65.194 38.171 65.1293 38.2837C65.0368 38.4529 64.9813 38.4887 64.7963 38.4887C64.6668 38.4887 64.565 38.4836 64.565 38.4734C64.565 38.4682 64.6483 38.3145 64.75 38.1402C64.9813 37.7302 64.9813 37.7046 64.7408 37.7764C64.602 37.8174 64.5558 37.8686 64.5928 37.9557C64.6483 38.13 64.4078 38.2376 64.232 38.1044C63.8805 37.843 64.3708 37.5919 65.2865 37.5714C65.4808 37.5662 65.49 37.5816 65.4345 37.7559ZM66.8775 37.6687C66.8775 37.7917 66.637 37.8635 66.489 37.7815C66.341 37.6995 66.4705 37.5662 66.6925 37.5662C66.8128 37.5662 66.8775 37.6021 66.8775 37.6687ZM67.599 37.7456C67.562 37.8532 67.5898 37.8737 67.7655 37.8737C67.9228 37.8737 67.9875 37.843 67.9875 37.7712C67.9875 37.7149 68.0245 37.6687 68.0708 37.6687C68.117 37.6687 68.228 37.6534 68.3205 37.6329C68.45 37.6072 68.4685 37.6226 68.4315 37.7354C68.3945 37.8327 68.4223 37.8737 68.5055 37.8737C68.6998 37.8737 68.6628 37.9609 68.4593 37.9916C68.302 38.0121 68.1078 38.2632 68.2095 38.3196C68.3483 38.3965 68.5425 38.253 68.7275 37.9557C68.9033 37.6585 68.9588 37.6175 69.1623 37.6175C69.3103 37.6175 69.375 37.6431 69.3565 37.679C69.1345 38.0121 68.9958 38.294 69.0513 38.3247C69.079 38.3401 69.1438 38.3247 69.19 38.2837C69.2363 38.2427 69.2918 38.2222 69.3195 38.2376C69.3473 38.253 69.3103 38.3145 69.227 38.376C69.079 38.4939 68.6905 38.5297 68.5795 38.4324C68.5425 38.3914 68.4963 38.3914 68.4223 38.4324C68.2928 38.5041 67.8673 38.5041 67.7378 38.4324C67.6638 38.3914 67.6175 38.3914 67.5805 38.4324C67.4973 38.5041 66.9978 38.5041 66.9238 38.4375C66.8868 38.4016 66.8128 38.4016 66.6925 38.4375C66.452 38.5092 66.1653 38.5041 66.119 38.4272C66.0913 38.3914 66.119 38.2581 66.1838 38.13C66.2578 37.9557 66.3318 37.8942 66.489 37.884C66.7203 37.8635 66.7388 37.9147 66.6093 38.171C66.5075 38.3504 66.5908 38.3811 66.8035 38.2427C67.007 38.1146 67.081 37.9762 66.9423 37.9762C66.8775 37.9711 66.896 37.9455 66.9978 37.9045C67.081 37.8686 67.155 37.802 67.155 37.7559C67.155 37.6841 67.2845 37.6431 67.562 37.6226C67.599 37.6226 67.6175 37.6739 67.599 37.7456Z" fill="black"/>
<path d="M25.8075 18.3424C25.7613 18.3988 25.715 18.7831 25.715 19.2188C25.715 19.6544 25.7613 20.0388 25.8075 20.0951C25.9 20.1874 26.0295 20.1925 28.379 20.1925C29.7665 20.1925 30.9135 20.172 30.9875 20.1413C31.0985 20.1054 31.1355 19.9363 31.154 19.2751C31.1725 18.7473 31.1448 18.4193 31.08 18.3526C30.9875 18.2501 30.9135 18.245 28.4438 18.245C26.0295 18.245 25.9 18.2501 25.8075 18.3424Z" fill="black"/>
<path d="M67.4325 38.1095C67.303 38.294 67.3215 38.3453 67.4972 38.3248C67.5805 38.3145 67.71 38.2325 67.7747 38.1403C67.8857 37.9865 67.8857 37.9763 67.71 37.9763C67.5897 37.9763 67.488 38.0275 67.4325 38.1095Z" fill="black"/>
</g>
<defs>
<clipPath id="clip0_104_2">
<rect width="74" height="41" fill="white"/>
</clipPath>
</defs>
</svg>
